<?xml version="1.0" standalone="no"?>
<!DOCTYPE svg PUBLIC "-//W3C//DTD SVG 20010904//EN"
 "http://www.w3.org/TR/2001/REC-SVG-20010904/DTD/svg10.dtd">
<svg version="1.0" xmlns="http://www.w3.org/2000/svg"
 width="1492.000000pt" height="1082.000000pt" viewBox="0 0 1492.000000 1082.000000"
 preserveAspectRatio="xMidYMid meet">
<metadata>
Created by potrace 1.13, written by Peter Selinger 2001-2015
</metadata>
<g transform="translate(0.000000,1082.000000) scale(0.100000,-0.100000)"
fill="#000000" stroke="none">
<path d="M891 9085 c-13 -19 -29 -35 -35 -35 -6 0 -49 12 -95 25 -47 14 -86
25 -88 25 -2 0 -3 -9 -3 -20 0 -11 5 -20 11 -20 22 0 149 -41 149 -48 0 -4
-12 -20 -26 -36 l-25 -29 -69 20 c-57 17 -70 18 -74 6 -6 -14 23 -29 77 -40
39 -8 40 -15 7 -54 -33 -38 -36 -49 -16 -49 8 0 30 18 48 41 l34 41 84 -26
c50 -15 88 -22 93 -17 16 16 -1 27 -70 46 -37 10 -71 20 -75 24 -3 3 6 21 21
38 l27 33 67 -19 c64 -19 67 -19 67 -2 0 13 -13 22 -47 31 -66 18 -67 19 -46
44 44 50 47 56 27 56 -11 0 -30 -16 -43 -35z"/>
<path d="M13924 8643 c-23 -4 -19 5 -188 -426 -58 -147 -106 -272 -106 -278 0
-10 39 -3 51 10 4 3 66 157 139 341 73 184 134 341 137 348 3 6 1 11 -3 11 -5
-1 -18 -4 -30 -6z"/>
<path d="M13481 8567 c-50 -25 -66 -62 -66 -150 1 -101 29 -169 85 -200 71
-40 170 12 186 99 9 47 -10 166 -33 204 -32 54 -114 77 -172 47z m103 -39 c23
-35 46 -136 46 -200 0 -90 -48 -125 -104 -75 -49 43 -76 238 -39 279 24 26 79
24 97 -4z"/>
<path d="M13975 8366 c-43 -19 -62 -45 -74 -97 -19 -85 18 -216 71 -253 13 -9
43 -16 70 -16 41 0 54 5 86 34 l37 35 0 93 c0 109 -19 159 -74 195 -38 26 -72
28 -116 9z m85 -36 c21 -21 45 -95 56 -172 17 -127 -77 -183 -131 -78 -20 39
-41 177 -32 212 15 57 69 76 107 38z"/>
<path d="M2165 7798 c-34 -30 -51 -99 -33 -136 11 -22 20 -27 52 -27 51 0 77
33 79 99 2 39 -2 51 -22 67 -30 25 -44 24 -76 -3z"/>
<path d="M2643 7652 c-18 -12 -34 -61 -27 -87 7 -30 55 -48 90 -35 23 9 44 45
44 76 0 38 -71 69 -107 46z"/>
<path d="M3149 7595 c-28 -15 -59 -70 -59 -104 0 -55 93 -84 124 -39 31 44 15
78 -40 87 l-38 6 24 23 c13 12 34 22 47 22 13 0 23 5 23 10 0 15 -51 11 -81
-5z"/>
<path d="M13525 7118 c-37 -29 -58 -80 -46 -111 20 -53 114 -54 127 -2 9 35
-1 55 -36 68 -17 6 -30 15 -30 19 0 12 37 28 64 28 14 0 26 5 26 10 0 19 -76
11 -105 -12z"/>
<path d="M1081 6401 c-8 -5 -52 -105 -98 -223 -47 -117 -102 -257 -123 -311
l-39 -98 26 3 c23 3 34 25 144 303 65 165 121 308 125 318 6 19 -11 23 -35 8z"/>
<path d="M695 6341 c-41 -17 -59 -50 -63 -114 -8 -122 45 -217 122 -217 103 0
148 90 111 225 -21 79 -57 115 -113 114 -20 0 -46 -4 -57 -8z m80 -35 c25 -25
40 -70 51 -153 11 -88 -23 -135 -81 -113 -32 12 -57 81 -63 171 -4 68 -2 79
17 98 27 27 46 27 76 -3z"/>
<path d="M1133 6155 c-45 -19 -66 -66 -65 -143 1 -66 26 -134 62 -167 44 -40
137 -19 168 39 21 40 19 138 -3 194 -32 80 -91 108 -162 77z m78 -28 c33 -25
64 -173 48 -231 -11 -39 -48 -57 -78 -39 -58 35 -88 244 -39 275 19 11 51 9
69 -5z"/>
<path d="M12514 5054 c-22 -118 -38 -217 -35 -219 4 -2 119 -24 256 -50 295
-54 428 -79 750 -139 132 -25 398 -74 591 -110 193 -36 362 -68 376 -71 14 -4
28 -3 31 2 9 14 81 422 76 428 -8 7 -376 77 -1514 286 -121 22 -276 51 -344
64 -68 14 -129 25 -136 25 -7 0 -27 -84 -51 -216z m123 186 c26 -5 329 -61
673 -125 988 -183 1225 -227 1231 -231 6 -3 -64 -390 -73 -399 -2 -3 -135 19
-294 49 -159 30 -599 111 -979 182 -379 70 -693 130 -696 133 -11 11 65 401
78 401 7 0 34 -4 60 -10z"/>
<path d="M12651 5033 c-54 -27 -78 -120 -35 -137 9 -3 29 0 44 8 26 12 29 12
33 -5 3 -12 14 -19 30 -19 31 0 45 17 18 22 -20 3 -20 4 -2 44 36 80 36 79
-13 91 -35 8 -52 7 -75 -4z"/>
<path d="M13445 4960 c3 -5 -12 -51 -34 -102 l-39 -92 40 -14 c55 -19 99 -3
121 44 34 70 14 109 -44 87 l-28 -11 15 36 c9 21 18 43 21 50 3 8 -5 12 -27
12 -17 0 -29 -4 -25 -10z"/>
<path d="M766 4043 c-11 -37 -69 -364 -65 -367 2 -2 276 -54 609 -115 333 -62
724 -134 869 -162 145 -27 265 -49 266 -49 10 0 81 378 73 386 -3 2 -151 32
-329 65 -178 33 -565 104 -860 159 -296 55 -542 100 -547 100 -6 0 -13 -8 -16
-17z m879 -158 c458 -85 838 -155 844 -155 6 0 11 -10 11 -22 0 -26 -58 -329
-64 -335 -4 -4 -81 10 -791 142 -247 46 -553 103 -680 126 -126 23 -234 45
-239 50 -5 5 0 59 14 131 37 204 41 218 56 218 8 0 390 -70 849 -155z"/>
<path d="M843 3845 c-24 -17 -48 -78 -39 -100 6 -17 39 -19 67 -5 15 8 19 7
19 -4 0 -21 25 -27 47 -10 16 12 16 13 1 8 -23 -8 -23 10 2 65 11 24 19 45 18
47 -2 1 -23 5 -48 9 -33 4 -51 2 -67 -10z"/>
<path d="M13266 3918 c-21 -51 -44 -103 -52 -115 -14 -22 -13 -23 11 -23 22 0
25 4 25 34 0 36 12 46 56 46 20 0 24 -5 24 -29 0 -16 -6 -32 -12 -35 -7 -4 -2
-4 12 -1 14 2 33 5 43 5 12 0 16 4 10 13 -4 6 -15 53 -23 102 -13 78 -18 90
-36 93 -18 3 -27 -10 -58 -90z"/>
<path d="M2659 2934 c-55 -29 -73 -121 -32 -166 22 -24 74 -23 101 2 53 50 -4
124 -69 90 -30 -16 -25 25 7 57 30 30 28 36 -7 17z"/>
<path d="M14273 2604 l-39 -47 -106 32 c-123 36 -134 37 -141 12 -4 -16 10
-22 97 -46 55 -16 104 -31 108 -34 4 -4 -9 -25 -30 -49 l-37 -42 -83 26 c-46
14 -85 24 -87 22 -2 -1 -5 -12 -7 -22 -2 -16 9 -22 70 -39 39 -11 72 -25 72
-31 -1 -6 -19 -31 -40 -56 -34 -39 -37 -46 -22 -52 18 -7 32 6 83 70 l26 34
105 -31 c58 -17 110 -31 116 -31 10 0 25 30 18 37 -2 2 -46 16 -99 31 -52 15
-95 32 -95 37 0 6 15 27 32 47 l31 37 80 -24 c44 -13 84 -19 89 -15 19 19 -5
38 -68 55 -36 10 -66 20 -66 23 0 3 16 24 35 48 40 49 42 54 16 54 -10 0 -37
-21 -58 -46z"/>
<path d="M13297 1888 c-22 -17 -37 -61 -37 -108 0 -31 5 -43 26 -56 50 -33 97
6 111 91 11 66 -50 110 -100 73z"/>
<path d="M14275 1678 c-34 -27 -57 -80 -49 -113 16 -65 134 -60 134 5 0 35
-23 60 -56 60 -13 0 -24 4 -24 8 0 16 36 42 58 42 12 0 22 5 22 10 0 18 -57
10 -85 -12z"/>
</g>
</svg>
